<svg xmlns="http://www.w3.org/2000/svg" width="453" height="102" viewBox="0 0 453 102" fill="none">
    <path d="M452.631 0V89.6602C452.631 96.4718 446.294 102 438.486 102H14.1447C6.33683 102 0 96.4718 0 89.6602V0H38.6575C42.0098 0 45.2489 1.03654 47.8091 2.92453L63.2269 14.3389C65.7871 16.2269 69.0262 17.2634 72.3785 17.2634H159.595C162.947 17.2634 166.186 16.2269 168.746 14.3389L184.164 2.92453C186.724 1.03654 189.963 0 193.316 0H259.315C262.667 0 265.906 1.03654 268.467 2.92453L283.884 14.3389C286.445 16.2269 289.684 17.2634 293.036 17.2634H380.252C383.605 17.2634 386.844 16.2269 389.404 14.3389L404.822 2.92453C407.382 1.03654 410.621 0 413.973 0H452.631Z" fill="#A08B54"/>
</svg>