<svg xmlns="http://www.w3.org/2000/svg" width="345" height="106" viewBox="0 0 345 106" fill="none">
    <path fill-rule="evenodd" clip-rule="evenodd" d="M344.523 78.6833V0.480713H315.099C312.547 0.480713 310.082 1.38479 308.133 3.03152L296.398 12.9872C294.449 14.634 291.983 15.5381 289.432 15.5381H223.047C220.495 15.5381 218.029 14.634 216.081 12.9872L204.345 3.03152C202.397 1.38479 199.931 0.480713 197.38 0.480713H147.144C144.592 0.480713 142.127 1.38479 140.178 3.03152L128.443 12.9872C126.494 14.634 124.028 15.5381 121.477 15.5381H55.0914C52.5398 15.5381 50.0743 14.634 48.1256 12.9872L36.3903 3.03152C34.4416 1.38479 31.9761 0.480713 29.4244 0.480713H0V78.6833C0 84.6244 4.82333 89.4462 10.7664 89.4462H202.475C203.084 90.7082 203.958 91.843 205.058 92.7646L217.045 102.81C218.845 104.319 221.119 105.146 223.468 105.146H292.89C295.24 105.146 297.515 104.318 299.316 102.809L311.294 92.7645C312.393 91.8428 313.267 90.708 313.875 89.4462H333.757C339.7 89.4462 344.523 84.6244 344.523 78.6833Z" fill="#A08B54"/>
</svg>