<svg xmlns="http://www.w3.org/2000/svg" width="57" height="69" viewBox="0 0 57 69" fill="none">
    <path id="Vector"
          d="M32.604 0.333374C32.632 0.400594 32.646 0.494701 32.702 0.535033C32.8702 0.656028 33.0524 0.76358 33.2205 0.857687C35.6867 2.34996 38.0829 3.93635 40.3109 5.76472C42.2587 7.3511 43.9122 9.19292 45.1733 11.3439C45.944 12.6615 46.5325 14.0327 46.8548 15.5116C46.9669 16.0224 47.023 16.5333 47.065 17.0576C47.2892 20.2976 47.1911 23.5241 47.1911 26.7641C47.1911 37.3983 47.1911 48.019 47.1911 58.6531C47.1911 58.9489 47.1351 59.2581 47.2752 59.5135C47.4714 59.6614 47.6956 59.6211 47.8918 59.6211C49.0548 59.6211 50.2179 59.6211 51.3809 59.6211C51.5911 59.6211 51.7873 59.6211 51.9554 59.6345C52.1796 59.8496 52.1236 60.0782 52.1236 60.2933C52.1236 61.3957 52.1236 62.4846 52.1236 63.587C52.1236 63.8021 52.1236 64.0172 52.1376 64.2055C52.4038 64.4071 52.6561 64.3668 52.8943 64.3668C54.0013 64.3668 55.0943 64.3668 56.2013 64.3668C56.4255 64.3668 56.6497 64.3802 56.9019 64.3937C56.944 64.5147 57 64.5953 57 64.6894C57 65.9935 57 67.2841 57 68.5882C57 68.6688 56.972 68.7361 56.9439 68.8436C56.8178 68.8571 56.6917 68.8839 56.5796 68.8974C56.3974 68.8974 56.2013 68.8974 56.0191 68.8974C37.6906 68.8974 19.348 68.8974 1.01942 68.8974C0.711142 68.8974 0.402864 68.9377 0.0665601 68.8302C-0.0315285 68.4806 0.0245222 68.1176 0.0105095 67.7681C0.0105095 67.3917 0.0105095 67.0152 0.0105095 66.6254C0.0105095 66.2624 0.0105095 65.8994 0.0105095 65.5499C0.0105095 65.2003 -0.0315285 64.8373 0.0525475 64.4743C0.27675 64.3399 0.514965 64.3802 0.739168 64.3802C1.86018 64.3802 2.98119 64.3802 4.11622 64.3802C4.35443 64.3802 4.62067 64.4206 4.88692 64.2323C4.88692 64.0441 4.90093 63.829 4.90093 63.6005C4.90093 62.4981 4.90093 61.4091 4.90093 60.3067C4.90093 60.1051 4.85889 59.9034 4.985 59.7286C5.13914 59.5942 5.33532 59.6345 5.51748 59.6345C6.68054 59.6345 7.84359 59.6345 9.00664 59.6345C9.23084 59.6345 9.45504 59.6345 9.70727 59.6211C9.74931 59.4598 9.80536 59.3388 9.81937 59.2043C9.83338 58.9623 9.81937 58.7203 9.81937 58.4918C9.81937 46.3654 9.81937 34.239 9.81937 22.1125C9.81937 21.3193 9.81937 20.5127 9.8474 19.7195C9.97351 17.434 10.4499 15.2158 11.4729 13.1185C12.3276 11.3574 13.5047 9.82478 14.8779 8.41317C16.8397 6.38314 19.0677 4.64887 21.4639 3.10282C22.7811 2.25586 24.1403 1.48955 25.5276 0.76358C25.7237 0.656028 25.976 0.615696 26.046 0.360262C28.274 0.333374 30.432 0.333374 32.604 0.333374ZM46.5325 59.5673C46.6727 59.2984 46.6306 59.0295 46.6306 58.7876C46.6306 54.1763 46.6587 49.5516 46.6306 44.9403C46.5886 35.9732 46.7567 27.0061 46.5185 18.0256C46.4625 16.0493 46.0141 14.1941 45.0752 12.4329C43.9402 10.3088 42.4408 8.4535 40.6192 6.84023C38.181 4.67576 35.4065 2.9415 32.5899 1.27445C32.4078 1.1669 32.2116 1.11312 32.0014 1.11312C30.7122 1.11312 29.4231 1.11312 28.1339 1.11312C28.0358 1.11312 27.9518 1.15345 27.7976 1.18034C27.8817 1.28789 27.9237 1.35511 27.9798 1.39544C28.1339 1.503 28.2881 1.58366 28.4562 1.67777C30.6001 2.95494 32.66 4.33966 34.5657 5.92605C36.4294 7.4721 38.1249 9.17948 39.5262 11.1288C40.4931 12.4732 41.2638 13.8983 41.7542 15.4578C42.2867 17.1383 42.4969 18.8457 42.4969 20.5934C42.4969 33.1365 42.4969 45.6932 42.4969 58.2364C42.4969 58.5321 42.4969 58.8413 42.5109 59.1371C42.5109 59.2715 42.567 59.406 42.595 59.527C43.0994 59.6211 44.4867 59.648 46.1122 59.5942C46.2523 59.5942 46.3924 59.5539 46.5325 59.5404V59.5673ZM40.6052 24.5997C40.6052 24.5997 40.6893 24.5862 40.7313 24.5728C40.7453 24.4249 40.7733 24.2636 40.7733 24.1157C40.7733 22.7713 40.7733 21.4403 40.7733 20.0959C40.7733 19.2086 40.6752 18.3482 40.5211 17.4744C40.1708 15.3637 39.344 13.4412 38.0128 11.7338C35.5046 8.52072 32.3798 5.97982 28.7785 3.96323C28.3721 3.73469 28.0779 3.76157 27.6995 3.99012C26.2282 4.90431 24.7709 5.83194 23.3976 6.86712C21.1416 8.56106 19.2779 10.5776 17.7225 12.8766C17.0359 13.8848 16.5174 14.9738 16.2232 16.1569C16.027 16.9501 15.8728 17.7567 15.7888 18.5768C15.6346 19.9077 15.7047 21.2521 15.6767 22.5831C15.6767 22.6772 15.6907 22.7847 15.8308 22.7982C15.8588 22.7847 15.9149 22.7578 15.9289 22.731C16.027 22.6234 16.1111 22.5158 16.1951 22.3949C17.3161 20.9698 18.5493 19.6523 20.0206 18.5499C21.562 17.3937 23.1734 16.3182 24.8129 15.3099C25.0932 15.1351 25.3734 15.0679 25.6957 15.0679C27.0129 15.0679 28.3161 15.0679 29.6333 15.0679C30.0396 15.0679 30.404 15.162 30.7543 15.3637C32.632 16.4795 34.3976 17.7433 36.0511 19.1549C37.7606 20.6068 39.2179 22.2739 40.3249 24.1963C40.409 24.3308 40.5071 24.4518 40.5912 24.5862L40.6052 24.5997ZM19.9085 40.1005C19.9645 39.8988 20.0066 39.7913 20.0346 39.6703C20.3008 38.3662 20.7492 37.1294 21.4359 35.9732C22.655 33.9432 24.3645 32.3568 26.3123 30.999C26.5084 30.8645 26.7186 30.8108 26.9569 30.8108C28.4142 30.8108 29.8715 30.8108 31.3288 30.8108C31.567 30.8108 31.7772 30.8645 31.9734 30.999C32.0855 31.0796 32.2116 31.1603 32.3237 31.241C33.753 32.2627 35.0141 33.4458 36.0371 34.8439C36.1211 34.9515 36.2192 35.0321 36.3173 35.1397C36.5415 34.9515 36.4715 34.7364 36.4715 34.5482C36.4715 33.0156 36.4294 31.4695 36.2753 29.9369C36.0511 27.759 35.3084 25.7827 33.9772 24.0081C32.4778 21.9915 30.6142 20.311 28.5263 18.8591C28.4002 18.765 28.246 18.6978 28.1059 18.6171C27.7135 18.765 27.4053 19.007 27.083 19.2221C25.4855 20.3648 24.0983 21.6958 22.8091 23.1477C20.9594 25.2584 20.0206 27.7052 19.8244 30.4343C19.7684 31.3082 19.7403 32.1955 19.7403 33.0693C19.7403 35.1263 19.7403 37.1832 19.7403 39.2401C19.7403 39.4149 19.7403 39.6031 19.7543 39.7778C19.7543 39.8451 19.8104 39.8988 19.8945 40.0602L19.9085 40.1005ZM18.0028 59.5673C18.0028 59.2447 18.0308 58.9623 18.0308 58.6934C18.0308 49.7398 18.0308 40.7996 18.0308 31.8459C18.0308 30.8914 18.1009 29.9369 18.269 28.9824C18.7034 26.4549 19.6703 24.1426 21.3098 22.1125C22.4728 20.6606 23.8741 19.4372 25.3454 18.2945C26.3123 17.5416 27.3632 16.8828 28.3721 16.1703C28.4982 16.0762 28.6664 16.0224 28.6944 15.7939C28.5123 15.7804 28.3581 15.7536 28.19 15.7536C27.4473 15.7536 26.6906 15.7536 25.9479 15.7536C25.5976 15.7536 25.3034 15.8342 25.0231 16.0224C24.0422 16.6677 23.0613 17.2996 22.0804 17.9315C20.8894 18.7112 19.7964 19.5985 18.8015 20.6068C17.9187 21.5076 17.0639 22.4352 16.4053 23.5107C14.99 25.8096 14.2894 28.3102 14.1493 30.9721C14.1072 31.9266 14.1072 32.8946 14.1072 33.8491C14.1072 42.1171 14.1072 50.3851 14.1072 58.6531C14.1072 58.8548 14.1072 59.0564 14.1072 59.2581C14.1072 59.3656 14.1633 59.4732 14.2053 59.6211C15.3263 59.6345 16.4193 59.6614 17.5263 59.6749C17.6665 59.6749 17.8066 59.6345 18.0308 59.5942L18.0028 59.5673ZM26.3823 59.5404C26.9569 59.6345 29.381 59.6614 31.4129 59.6076C31.553 59.6076 31.6931 59.5807 31.8192 59.5673C31.9874 59.2984 31.9454 59.043 31.9454 58.7876C31.9454 53.168 31.9454 47.5619 31.9454 41.9423C31.9454 41.4449 31.9314 40.934 31.8473 40.45C31.539 38.6351 30.7403 37.0218 29.5212 35.6237C29.4231 35.5027 29.283 35.4086 29.1849 35.3279C28.9326 35.3682 28.8345 35.5296 28.7084 35.664C27.1951 37.4252 26.2842 39.4149 26.2983 41.7407C26.3123 44.4832 26.2983 47.2123 26.2983 49.9549C26.2983 52.9126 26.2983 55.8702 26.2983 58.8279C26.2983 59.0699 26.2702 59.2984 26.3683 59.5673L26.3823 59.5404ZM27.6995 31.4695C27.8397 31.7922 28.0498 31.9266 28.232 32.0879C29.4651 33.2172 30.5861 34.4541 31.4829 35.8657C32.3657 37.2369 32.9683 38.7158 33.2345 40.3156C33.3466 40.9744 33.3466 41.6331 33.3466 42.2919C33.3466 46.8628 33.3466 51.4337 33.3466 56.0181C33.3466 56.9323 33.3466 57.8599 33.3466 58.7741C33.3466 58.9489 33.3466 59.1371 33.3747 59.3119C33.3887 59.4463 33.4868 59.527 33.6129 59.5539C33.6969 59.5673 33.781 59.5807 33.8651 59.5807C34.86 59.5807 35.8689 59.5807 36.8638 59.5539C37.0039 59.5539 37.13 59.4866 37.2982 59.4463C37.2982 59.1774 37.3402 58.9489 37.3402 58.7069C37.3402 57.5507 37.2982 56.3945 37.2982 55.2384C37.2982 50.2507 37.2702 45.2495 37.2702 40.2618C37.2702 39.0384 36.9899 37.8823 36.4294 36.7933C35.3925 34.7364 33.8511 33.0828 31.9454 31.7384C31.8613 31.6846 31.7772 31.6308 31.6791 31.5771C31.497 31.4561 31.3008 31.4023 31.0906 31.4023C30.0957 31.4023 29.0868 31.4023 28.0919 31.4023C27.9798 31.4023 27.8677 31.4561 27.6995 31.4964V31.4695ZM26.3683 67.9698C26.6486 68.1311 26.9428 68.0773 27.2231 68.0773C33.6269 68.0773 40.0447 68.0773 46.4485 68.0773C46.6166 68.0773 46.7848 68.0773 46.9529 68.0773C47.065 68.0773 47.1911 68.0101 47.2892 67.9832C47.3733 67.5396 47.4153 65.5499 47.3593 64.555C47.3593 64.4609 47.3172 64.3668 47.2892 64.2727C47.009 64.1517 46.7287 64.192 46.4625 64.192C40.0307 64.192 33.5989 64.192 27.167 64.192C27.0269 64.192 26.8728 64.192 26.7327 64.192C26.6065 64.192 26.4944 64.2323 26.3823 64.2458C26.3403 64.3399 26.2983 64.3937 26.2983 64.4474C26.2983 65.523 26.2983 66.5985 26.2983 67.6874C26.2983 67.7815 26.3263 67.8756 26.3543 67.9832L26.3683 67.9698ZM14.1072 60.1992C13.9251 60.0916 13.7149 60.1185 13.5047 60.1185C12.4818 60.1185 11.4729 60.1185 10.4499 60.1185C10.3939 60.1185 10.3238 60.1185 10.2678 60.1185C9.80536 60.132 9.74931 60.1857 9.7353 60.6563C9.7353 60.6697 9.7353 60.6966 9.7353 60.71C9.7353 61.7318 9.7353 62.7535 9.7353 63.7618C9.7353 64.2592 9.80536 64.313 10.3098 64.3399C10.3659 64.3399 10.4359 64.3399 10.492 64.3399C11.4869 64.3399 12.4958 64.3399 13.4907 64.3399C13.5748 64.3399 13.6588 64.3399 13.7429 64.3399C14.1633 64.313 14.2193 64.2458 14.2474 63.829C14.2474 63.7887 14.2474 63.7484 14.2474 63.708C14.2474 62.7266 14.2474 61.7452 14.2474 60.7773C14.2474 60.5756 14.2614 60.3739 14.1213 60.1992H14.1072Z"
          fill="#A08B53"/>
</svg>