<svg xmlns="http://www.w3.org/2000/svg" width="150" height="193" viewBox="0 0 150 193" fill="none">
    <path d="M35.8821 151.594C64.0777 141.383 84.5971 141.144 113.109 151.465C115.386 147.33 117.347 142.944 120.037 139.061C124.133 133.139 129.732 129.172 137.305 131.075C144.878 132.978 148.084 139.119 148.794 146.273C150.297 161.451 146.278 175.758 140.627 189.614C140.001 191.149 136.854 192.511 134.867 192.517C94.6536 192.685 54.4469 192.704 14.2338 192.459C12.0987 192.446 8.56375 190.162 8.07995 188.318C5.02236 176.539 2.3776 164.637 0.210196 152.665C-0.415513 149.195 0.455332 145.202 1.51323 141.712C5.02237 130.172 17.0205 126.998 25.7868 135.236C28.1284 137.435 29.9927 140.241 31.7021 143.002C33.2889 145.569 34.3791 148.446 35.8756 151.594H35.8821ZM74.0955 185.905C92.6668 185.905 111.238 185.976 129.803 185.802C131.854 185.783 135.247 184.808 135.731 183.454C140.066 171.288 144.02 158.871 141.614 145.756C141.079 142.854 138.202 138.958 135.647 138.254C133.138 137.564 128.597 139.525 126.855 141.789C123.617 146.014 121.333 151.149 119.463 156.206C117.889 160.451 115.966 161.006 112.128 159.219C87.2806 147.705 62.3296 147.614 37.456 159.109C33.3599 160.999 30.9925 160.683 29.7088 155.936C28.8638 152.801 27.606 149.691 26.0191 146.866C23.3485 142.112 20.478 136.377 13.8855 137.887C6.88014 139.493 7.28006 146.202 6.73176 151.826C6.66725 152.472 6.69952 153.149 6.82853 153.787C8.6476 162.747 10.557 171.688 12.2857 180.661C13.1114 184.931 15.5304 186.034 19.6846 185.989C37.8173 185.789 55.9499 185.905 74.0826 185.912L74.0955 185.905Z" fill="#A08B54"/>
    <path d="M107.258 38.3602C124.288 45.372 129.442 53.1966 129.442 72.6968C129.442 86.9139 129.59 101.138 129.28 115.348C129.235 117.535 127.049 119.677 125.855 121.844C124.823 119.741 122.933 117.645 122.894 115.522C122.623 100.434 122.81 85.34 122.688 70.2456C122.552 53.2804 114.044 44.8043 97.2661 44.7656C81.7394 44.7334 66.2128 44.6947 50.6862 44.7785C35.9014 44.8559 26.8963 53.4675 26.606 68.2588C26.3222 83.1274 26.5351 98.009 26.5222 112.878C26.5222 114.626 26.8447 116.503 26.3158 118.09C25.8513 119.496 24.4064 120.58 23.4001 121.805C22.2067 120.535 19.9877 119.264 19.9748 117.98C19.8587 99.3959 19.3555 80.7729 20.3876 62.2339C21.0262 50.7905 28.5606 43.9271 41.9714 38.3408C41.6295 30.8194 40.9264 23.5238 41.049 16.2475C41.2102 6.4361 47.3964 0.366072 57.2207 0.172554C68.806 -0.0532175 80.4041 -0.0661188 91.9894 0.185455C101.885 0.398325 107.987 6.4103 108.161 16.2475C108.29 23.369 107.6 30.4969 107.245 38.3602H107.258ZM74.9921 37.7538V37.7796C77.1724 37.7796 79.3592 37.7796 81.5395 37.7796C101.265 37.7796 102.136 36.8701 101.336 17.0474C101.059 10.2549 98.0207 7.0231 91.2605 6.87474C83.623 6.70702 75.9726 7.08116 68.348 6.77798C45.6483 5.88135 47.8415 10.1129 47.9576 28.2779C47.9963 34.3092 51.2732 37.5861 57.3174 37.728C63.2068 37.8635 69.1027 37.7603 74.9921 37.7603V37.7538Z" fill="#A08B54"/>
    <path d="M82.2493 124.624C83.204 108.446 85.8487 94.1773 93.5314 81.2696C94.7505 79.2183 95.9955 76.9606 97.8081 75.5544C99.1628 74.5029 101.459 74.6642 103.343 74.2901C103.175 76.1865 103.71 78.6184 102.736 79.8892C95.7117 88.991 92.3316 99.5055 90.506 110.575C89.5513 116.367 89.6288 122.321 88.7515 128.133C88.4225 130.301 86.7131 132.262 85.6358 134.313C84.507 132.133 83.1459 130.043 82.3331 127.753C81.8558 126.398 82.2428 124.727 82.2428 124.631L82.2493 124.624Z" fill="#A08B54"/>
    <path d="M66.9809 123.308C66.9809 125.489 67.3357 127.753 66.8648 129.83C66.4972 131.436 65.0974 132.804 64.1556 134.274C62.9042 132.855 60.8012 131.565 60.5626 129.991C59.7562 124.618 59.8466 119.115 59.1499 113.723C57.5759 101.46 54.0991 89.8876 46.4938 79.7988C45.5326 78.5281 46.1067 76.1026 45.9648 74.2126C47.8484 74.6384 50.8157 74.4642 51.4414 75.593C55.5311 82.9661 59.9691 90.3262 62.6268 98.254C65.2973 106.221 66.0327 114.832 67.6131 123.16C67.4002 123.211 67.1874 123.257 66.9745 123.308H66.9809Z" fill="#A08B54"/>
</svg>