<svg xmlns="http://www.w3.org/2000/svg" width="184" height="210" viewBox="0 0 184 210" fill="none">
    <path d="M91.4897 209.24C90.5567 209.24 89.6509 209.117 88.8541 208.879C68.5254 202.784 50.335 191.697 33.2411 174.971C19.3481 161.37 9.90219 146.878 4.37903 130.669C1.48465 122.143 0.00681031 113.242 0 104.211C0 79.2516 0 54.2986 0 29.3456C0 25.7294 0.967064 24.5376 4.14748 24.2515C23.0529 22.5285 40.8687 15.9293 58.5959 4.07257C62.8115 1.2531 66.8841 0 71.8215 0C72.0054 0 72.1893 0 72.3732 0C78.1143 0.108965 84.155 0.156637 91.3944 0.156637C97.4283 0.156637 103.558 0.122585 109.489 0.0885335L115.442 0.0544824C117.471 0.0544824 119.174 0.606118 120.958 1.8456C135.716 12.0883 150.297 18.7147 165.525 22.0995C169.652 23.0189 173.847 23.5841 178.144 24.1357C181.91 24.6193 183.007 25.3752 183.007 29.441C183.007 39.3908 183.007 49.3407 183.007 59.2906V69.9351C183.007 73.1836 182.993 76.4253 182.973 79.6738C182.939 86.777 182.905 94.1253 183.041 101.344C183.374 118.622 178.968 134.783 169.945 149.364C152.074 178.226 126.679 198.221 94.459 208.791C93.5669 209.083 92.5385 209.24 91.4897 209.24ZM7.08272 31.3955C7.06229 31.8042 7.04186 32.1651 7.03505 32.526C7.03505 38.6894 7.02824 44.8527 7.02143 51.016C7.001 68.5185 6.98057 86.6135 7.11678 104.409C7.15764 109.571 7.74332 114.876 8.8534 120.168C11.7342 133.877 18.1903 146.646 28.5761 159.198C44.7029 178.682 64.4528 192.793 87.281 201.129C88.8065 201.687 90.2162 201.96 91.5851 201.96C92.9539 201.96 94.2138 201.715 95.5895 201.197C121.584 191.567 143.01 175.284 159.266 152.789C170.782 136.86 176.435 119.003 176.067 99.7166C175.774 84.2912 175.842 68.6003 175.91 53.4337C175.938 46.8345 175.972 40.0106 175.972 33.3024V31.1163L175.277 31.021C174.426 30.9052 173.615 30.7962 172.812 30.6736C171.776 30.517 170.687 30.3331 169.263 30.0743C151.577 26.8871 134.701 19.7363 117.675 8.21323C116.742 7.57988 115.435 7.17126 114.338 7.16445C106.397 7.12359 98.3205 7.11678 90.5158 7.11678C83.6034 7.11678 76.4594 7.10996 69.4311 7.08272L69.3834 6.51747V7.08272C67.5991 7.08272 66.1962 7.51858 64.698 8.54013C48.7482 19.4094 32.7372 26.3287 15.7454 29.693C13.6819 30.1016 11.5707 30.4353 9.52763 30.7622C8.7172 30.8916 7.89996 31.021 7.08272 31.1572C7.08272 31.2389 7.07591 31.3138 7.0691 31.3955H7.08272Z" fill="#A08B54"/>
    <path d="M182.435 69.9352C182.435 80.4094 182.271 90.8837 182.476 101.358C182.809 118.568 178.464 134.531 169.461 149.064C151.625 177.872 126.522 197.669 94.2822 208.253C92.675 208.777 90.6319 208.818 89.0179 208.334C67.6199 201.926 49.484 190.069 33.6364 174.562C20.8126 162.017 10.7538 147.614 4.91732 130.479C2.01612 121.959 0.572337 113.201 0.565527 104.205C0.558716 79.2517 0.565527 54.2919 0.565527 29.3389C0.565527 26.0359 1.26699 25.0689 4.19542 24.8032C24.2654 22.9713 42.3264 15.6161 58.9027 4.52895C63.1659 1.67543 67.2861 0.463198 72.353 0.558543C86.6887 0.824145 101.031 0.687939 115.374 0.613025C117.39 0.599405 118.997 1.17828 120.625 2.30198C134.306 11.7956 149.051 19.0077 165.389 22.6444C169.557 23.5706 173.813 24.1495 178.056 24.6875C181.693 25.1506 182.428 25.7907 182.428 29.4343C182.428 42.9323 182.428 56.4303 182.428 69.9216L182.435 69.9352ZM176.537 30.6193C175.23 30.4422 174.058 30.2924 172.9 30.1153C171.722 29.9314 170.544 29.7339 169.373 29.5228C150.604 26.1449 133.707 18.3811 118.003 7.75023C116.981 7.06239 115.578 6.61291 114.352 6.6061C99.3831 6.53119 84.4141 6.58567 69.445 6.52437C67.5313 6.51756 65.9854 6.99429 64.3986 8.07713C49.5112 18.2245 33.4117 25.6273 15.6572 29.1414C12.6538 29.7339 9.61643 30.163 6.56541 30.6737C6.53136 31.4024 6.48369 31.9609 6.48369 32.5193C6.48369 56.4848 6.38153 80.4503 6.56541 104.409C6.60627 109.707 7.22601 115.088 8.31566 120.277C11.428 135.083 18.5856 147.988 28.1541 159.552C44.063 178.778 63.5541 193.052 87.0974 201.653C90.0735 202.743 92.7703 202.845 95.7941 201.722C122.048 191.996 143.371 175.761 159.729 153.116C171.212 137.235 177.014 119.541 176.639 99.703C176.217 77.5763 176.544 55.4292 176.544 33.2957C176.544 32.458 176.544 31.6272 176.544 30.6124L176.537 30.6193Z" fill="#A08B54"/>
    <path d="M91.3538 198.194C90.6932 198.194 90.0939 198.098 89.5831 197.908C58.2352 186.446 34.6647 166.492 19.5322 138.597C13.7026 127.85 10.7674 115.905 10.815 103.101C10.8695 88.1731 10.8559 72.9929 10.8491 58.3099C10.8491 51.8741 10.8423 45.4384 10.8423 39.0026C10.8423 35.1821 11.4961 34.3852 15.1941 33.6702C32.5195 30.3263 49.1026 23.3389 65.8832 12.3062C67.2861 11.38 69.1862 10.8011 70.8479 10.7875C78.0464 10.7262 85.3675 10.7262 92.4434 10.7262C98.634 10.7262 105.036 10.7262 111.335 10.6854H111.424C113.828 10.6854 115.83 11.3051 117.914 12.6876C133.421 22.978 148.942 29.6725 165.375 33.1526C166.403 33.3705 167.432 33.5816 168.46 33.7927C171.307 34.3716 172.179 35.4408 172.179 38.3761C172.185 46.8141 172.179 55.2452 172.179 63.6832V72.9589C172.179 75.7988 172.158 78.6455 172.138 81.4854C172.09 87.6759 172.049 94.0708 172.226 100.35C172.703 117.185 168.058 133.012 158.415 147.402C142.452 171.211 120.72 188.155 93.8191 197.765C93.0563 198.037 92.1846 198.187 91.3674 198.187L91.3538 198.194ZM17.8637 42.4623C17.8637 48.3941 17.8637 54.3258 17.8705 60.2644C17.8841 74.2664 17.8909 88.752 17.8365 102.992C17.7956 114.161 20.2473 124.595 25.1235 134.006C38.4308 159.695 59.9719 178.675 89.1404 190.416C89.944 190.743 90.7136 190.9 91.4832 190.9C92.3208 190.9 93.1653 190.716 94.1528 190.335C117.199 181.277 136.118 166.607 150.379 146.721C160.587 132.495 165.579 116.681 165.218 99.737C164.939 86.4705 165.007 72.9725 165.069 59.9239C165.096 54.2373 165.123 48.36 165.123 42.5781V40.426C165.089 40.4124 165.048 40.3988 165.014 40.3851C164.749 40.2762 164.517 40.1808 164.299 40.14C147.164 36.585 130.724 29.5772 114.039 18.7079C113.215 18.1699 112.064 17.8362 111.036 17.8294C104.327 17.7953 97.7691 17.7749 91.5513 17.7749C84.8772 17.7749 78.3052 17.7953 72.0329 17.8362C70.9501 17.843 69.6561 18.2448 68.6686 18.885C56.3488 26.853 44.4988 32.6009 32.4446 36.4488C29.1007 37.518 25.7705 38.4101 22.2563 39.35C20.7989 39.7382 19.3347 40.1332 17.8501 40.5418V42.4759L17.8637 42.4623Z" fill="#A08B54"/>
    <path d="M171.607 72.9658C171.607 82.1052 171.396 91.2446 171.654 100.377C172.145 117.478 167.371 133.026 157.938 147.096C142.023 170.823 120.57 187.611 93.6218 197.247C92.4572 197.663 90.9045 197.799 89.7808 197.39C59.3183 186.248 35.598 167.03 20.0296 138.345C14.1114 127.435 11.3328 115.605 11.3805 103.122C11.4554 81.7579 11.4009 60.3871 11.4009 39.0232C11.4009 35.4954 11.83 34.9166 15.2964 34.2423C33.7728 30.6737 50.533 23.087 66.1831 12.7967C67.4975 11.9318 69.2749 11.3869 70.8413 11.3733C84.3325 11.2643 97.8306 11.3529 111.322 11.2712C113.692 11.2575 115.619 11.8705 117.587 13.178C132.229 22.8895 147.982 30.0676 165.246 33.7248C166.274 33.9427 167.309 34.1538 168.338 34.3649C170.905 34.8825 171.607 35.7202 171.607 38.3966C171.613 49.9265 171.607 61.4495 171.607 72.9794V72.9658ZM17.2986 40.106V42.4624C17.2986 62.6345 17.3531 82.8135 17.2782 102.986C17.2374 114.025 19.5801 124.52 24.6265 134.259C38.7103 161.439 60.8165 179.615 88.9363 190.934C90.8432 191.704 92.5049 191.581 94.3641 190.852C117.478 181.767 136.384 167.207 150.842 147.042C160.949 132.951 166.158 117.301 165.791 99.7167C165.389 80.675 165.702 61.6198 165.702 42.5713C165.702 41.7337 165.702 40.896 165.702 40.0311C165.212 39.854 164.83 39.6565 164.435 39.5748C146.313 35.8155 129.812 28.2765 114.373 18.2245C113.447 17.6184 112.18 17.2574 111.07 17.2574C98.0621 17.1893 85.0612 17.1825 72.0536 17.2642C70.8209 17.271 69.4248 17.7273 68.3828 18.4084C57.0709 25.7294 45.1528 31.8042 32.295 35.9109C27.4256 37.4636 22.4472 38.6827 17.3055 40.1128L17.2986 40.106Z" fill="#A08B54"/>
    <path d="M51.8673 127.114C50.5801 127.114 49.3747 126.318 48.3804 124.806C44.0286 118.206 41.3454 110.872 40.3987 102.999C37.8312 81.5057 48.898 60.6184 67.9464 51.0227C75.6966 47.1204 83.6033 45.1386 91.4556 45.1386C99.7914 45.1386 108.236 47.3656 116.558 51.765C116.96 51.9762 117.362 52.2009 117.832 52.4597L117.812 52.378C117.641 51.5607 117.485 50.8388 117.348 50.1169C117.124 48.9456 117.308 47.8491 117.873 47.0183C118.35 46.3168 119.058 45.8605 119.916 45.7039C120.222 45.6494 120.522 45.6153 120.801 45.6153C122.449 45.6153 123.648 46.596 124.091 48.3054C125.01 51.8944 126.072 56.1441 126.999 60.4005C127.244 61.531 127.053 62.5866 126.461 63.3698C125.861 64.1666 124.881 64.6502 123.702 64.7319C119.766 64.9975 115.578 65.1677 111.246 65.229H111.171C109.128 65.229 107.794 63.9214 107.685 61.8239C107.589 59.8557 108.917 58.4596 111.069 58.2621C111.805 58.194 112.534 58.1531 113.426 58.0986C109.19 55.6061 104.96 54.0124 100.227 53.1067C97.3465 52.555 94.4249 52.2758 91.5374 52.2758C69.1314 52.2758 50.6006 68.4571 47.4815 90.7473C46.0377 101.051 48.1284 110.919 53.6925 120.072C53.7878 120.229 53.89 120.386 53.9921 120.542C54.0806 120.679 54.176 120.815 54.2577 120.958C56.2599 124.172 54.7821 125.827 53.7197 126.529C53.1272 126.917 52.5075 127.114 51.8741 127.114H51.8673Z" fill="#A08B54"/>
    <path d="M118.635 53.5494C118.343 52.1465 118.111 51.0841 117.907 50.0081C117.539 48.1352 118.383 46.5552 120.018 46.2556C121.809 45.9219 123.089 46.6846 123.546 48.4485C124.574 52.4598 125.575 56.4779 126.447 60.5232C126.883 62.5254 125.752 64.0305 123.661 64.1735C119.528 64.4527 115.38 64.6094 111.233 64.6707C109.462 64.6979 108.338 63.6627 108.243 61.7967C108.161 60.1214 109.271 58.9909 111.11 58.8274C112.275 58.7185 113.439 58.6708 115.237 58.555C110.259 55.3746 105.451 53.529 100.329 52.5551C74.6272 47.6449 50.5459 64.7933 46.916 90.6724C45.4314 101.276 47.6311 111.206 53.2087 120.372C53.3926 120.672 53.5969 120.958 53.7808 121.258C55.102 123.376 54.9726 125.03 53.4062 126.059C51.8671 127.074 50.185 126.508 48.857 124.499C44.5256 117.934 41.8968 110.722 40.9638 102.938C38.4236 81.6692 49.1566 61.1293 68.2051 51.5336C84.257 43.4429 100.391 43.8652 116.299 52.2691C116.974 52.6232 117.634 52.9978 118.642 53.5562L118.635 53.5494Z" fill="#A08B54"/>
    <path d="M91.1153 148.254C82.7182 148.254 74.4573 146.068 66.5505 141.75C66.1214 141.518 65.6992 141.28 65.1544 140.98C65.168 141.028 65.1748 141.076 65.1884 141.123C65.3791 141.982 65.5426 142.717 65.6856 143.459C65.8967 144.583 65.6992 145.645 65.1339 146.463C64.63 147.185 63.8877 147.648 62.9751 147.798C62.7095 147.838 62.4507 147.866 62.2055 147.866C60.5506 147.866 59.3384 146.844 58.8889 145.067C57.7788 140.674 56.8594 137.01 56.0217 133.183C55.7561 131.977 55.94 130.922 56.5461 130.132C57.1931 129.287 58.2555 128.81 59.6312 128.742C63.6425 128.552 67.5448 128.395 71.2292 128.293C71.2973 128.293 71.3654 128.293 71.4335 128.293C73.7762 128.293 75.2336 129.512 75.3358 131.555C75.4448 133.721 73.9329 135.158 71.3926 135.307C71.018 135.328 70.6367 135.335 70.2281 135.335C69.9829 135.335 69.7241 135.335 69.4517 135.335C69.5402 135.396 69.6151 135.45 69.6968 135.498C76.1598 139.285 83.5558 141.287 91.0948 141.287C112.895 141.287 131.882 125.473 135.253 104.504C137.092 93.0699 134.933 82.3368 128.838 72.6117C127.959 71.2088 127.632 70.0919 127.871 69.2883C128.184 68.2395 129.444 66.6186 130.629 66.5641C130.67 66.5641 130.717 66.5641 130.758 66.5641C132.038 66.5641 133.659 67.4018 134.368 68.4302C138.549 74.4982 141.205 81.2472 142.268 88.4797C144.277 102.182 141.185 115.68 133.564 126.502C125.936 137.337 114.277 144.74 100.745 147.348C97.5238 147.968 94.2821 148.281 91.1085 148.281L91.1153 148.254Z" fill="#A08B54"/>
    <path d="M64.3306 139.877C64.6575 141.396 64.9163 142.472 65.1206 143.555C65.4679 145.393 64.5622 146.946 62.8732 147.232C61.0617 147.532 59.8699 146.66 59.4272 144.917C58.4261 140.973 57.4318 137.023 56.5668 133.046C56.0833 130.826 57.316 129.403 59.6519 129.287C63.5134 129.103 67.3748 128.946 71.2363 128.837C73.436 128.776 74.6755 129.784 74.764 131.562C74.8525 133.414 73.6131 134.592 71.352 134.722C70.3713 134.776 69.3907 134.728 67.8583 134.728C68.6415 135.355 68.9889 135.709 69.4043 135.954C95.7738 151.4 130.942 134.749 135.805 104.559C137.671 92.9607 135.553 82.2277 129.308 72.271C128.777 71.4265 128.164 70.2075 128.409 69.4107C128.702 68.4504 129.832 67.1292 130.649 67.0884C131.725 67.0407 133.271 67.7966 133.898 68.7092C138.018 74.6887 140.647 81.3287 141.703 88.5204C145.809 116.531 128.341 141.416 100.63 146.755C88.766 149.044 77.4336 147.048 66.8027 141.246C66.1285 140.878 65.4611 140.51 64.317 139.877H64.3306Z" fill="#A08B54"/>
    <path d="M75.7242 117.566C74.3213 117.566 73.2997 116.463 72.1828 114.808C70.5279 112.35 68.873 109.884 67.2249 107.419C64.2965 103.054 61.3749 98.6951 58.4328 94.3433C57.4862 92.9404 56.7098 91.2582 58.14 89.4399C58.8006 88.6022 59.7131 88.1391 60.7075 88.1391C61.9878 88.1391 63.2341 88.8882 64.1194 90.2026C66.7414 94.0709 69.3429 97.9596 71.9445 101.841C73.1771 103.68 74.403 105.512 75.6357 107.351C75.9149 107.766 76.2009 108.168 76.5142 108.618L76.6708 108.842L95.3038 93.7167L101.712 88.5068C106.337 84.7476 110.968 80.9883 115.599 77.2358C116.62 76.4049 117.614 75.9895 118.561 75.9895C119.419 75.9895 120.189 76.33 120.87 76.9974C121.619 77.7397 121.993 78.6115 121.953 79.5172C121.898 80.6069 121.244 81.7034 120.046 82.684C116.423 85.6465 112.793 88.5886 109.156 91.5374L104.825 95.0516L97.6398 100.888C91.4696 105.9 85.2995 110.906 79.1225 115.912C77.6787 117.083 76.664 117.58 75.7242 117.58V117.566Z" fill="#A08B54"/>
    <path d="M76.5544 109.646C83.0106 104.409 89.3306 99.2739 95.6573 94.1389C102.42 88.643 109.183 83.1471 115.952 77.658C117.689 76.2482 119.255 76.1801 120.467 77.3787C121.911 78.8089 121.652 80.6137 119.684 82.2277C114.624 86.3684 109.544 90.475 104.47 94.5884C95.9025 101.542 87.342 108.502 78.7678 115.448C75.9415 117.737 74.702 117.532 72.6521 114.481C68.0688 107.657 63.4991 100.827 58.9021 94.0163C57.9691 92.6339 57.4106 91.2718 58.582 89.7803C59.91 88.0914 62.2255 88.4046 63.6489 90.509C67.5103 96.2093 71.3309 101.937 75.1719 107.651C75.5942 108.277 76.0368 108.89 76.5544 109.639V109.646Z" fill="#A08B54"/>
</svg>