<svg xmlns="http://www.w3.org/2000/svg" width="186" height="193" viewBox="0 0 186 193" fill="none">
    <g clip-path="url(#clip0_169_124)">
        <path d="M91.384 193C74.6588 193 59.5478 189.105 46.4634 181.415C33.372 173.724 22.2716 162.217 13.461 147.213C-5.55395 114.809 -4.41618 81.6238 16.8459 48.5805C17.1161 48.1612 17.4077 47.7489 17.6992 47.3438C17.8841 47.0879 18.0619 46.8391 18.2396 46.5833C19.6619 44.5292 20.8423 43.5767 21.9587 43.5767C22.5703 43.5767 23.2529 43.861 23.9925 44.4226C25.8271 45.8156 25.6991 47.1803 23.4378 50.2437C15.3454 61.232 10.2255 73.6348 7.77928 88.1699C1.9411 122.94 21.2121 161.03 52.6074 176.773C53.1336 177.036 53.674 177.242 54.2927 177.477C54.6198 177.598 54.9754 177.74 55.3878 177.903L56.8171 178.479L60.2518 167.448C62.442 160.412 64.6109 153.46 66.7513 146.509C68.1735 141.889 69.5815 137.255 70.9895 132.628C74.0046 122.692 77.1263 112.414 80.3903 102.371C82.1752 96.8696 82.1467 92.4202 80.2978 87.9424C79.2454 85.405 78.449 82.7112 77.6099 79.8682C77.2188 78.5391 76.8134 77.1673 76.3654 75.76L75.8392 74.1039C75.8392 74.1039 69.8588 77.4161 67.6615 78.6386C62.5629 81.4674 57.7487 84.1399 52.8207 86.8336C50.9363 87.8643 49.5425 88.3689 48.5683 88.3689C47.523 88.3689 46.4065 87.779 45.3257 83.4931C43.5195 76.3286 41.7275 69.1641 39.9355 61.9997C36.7568 49.2913 33.4715 36.1422 30.1436 23.2348C29.1836 19.5246 29.4538 16.5394 31.0467 13.2628C32.476 10.3202 33.4929 7.99606 34.3106 6.12676C36.9417 0.120829 36.9986 0 41.2439 0C42.1044 0 43.0999 0.0213228 44.259 0.0568609C45.8874 0.0995065 47.9141 0.14926 50.3461 0.14926H51.3914C62.9398 0.0781837 74.3743 0.0710761 83.0427 0.0710761C87.7147 0.0710761 106.41 0.0852913 111.082 0.0852913C119.992 0.0852913 131.732 0.0781837 143.544 0.00710761H143.629C147.547 0.00710761 149.133 1.5921 151.017 4.91136C155.824 13.3978 156.564 21.799 153.407 32.1477C149.858 43.7829 146.978 55.8089 144.191 67.4441C142.911 72.789 141.588 78.3187 140.216 83.7276C139.035 88.3902 137.784 88.3902 137.108 88.3902C136.184 88.3902 134.861 87.9211 133.083 86.9474C128.255 84.3176 123.483 81.6664 118.442 78.866C116.223 77.6364 113.969 76.3855 111.665 75.1061L110.115 74.2461L109.61 75.9448C109.112 77.6364 108.55 79.3209 108.01 80.9414C105.414 88.7527 102.961 96.1233 106.296 105.399C111.942 121.085 116.898 137.34 121.684 153.062C123.682 159.623 125.745 166.396 127.835 173.049C128.07 173.795 128.34 174.527 128.653 175.373C128.817 175.814 128.994 176.297 129.186 176.844L129.713 178.309L131.128 177.655C139.54 173.76 147.149 168.266 154.395 160.859C183.152 131.462 186.949 85.5401 163.426 51.6581C163.156 51.2672 162.857 50.8692 162.559 50.4711C161.449 48.9856 160.311 47.4504 160.503 46.2563C160.61 45.6237 161.129 44.9769 162.061 44.3373C162.822 43.8113 163.497 43.5483 164.08 43.5483C165.559 43.5483 166.818 45.3963 168.027 47.1874C168.233 47.4859 168.432 47.7845 168.631 48.0688C187.625 75.2198 190.597 109.471 176.582 139.693C162.658 169.715 134.79 189.453 102.036 192.495C98.4382 192.829 94.8542 193 91.3911 193H91.384ZM92.9626 98.4404C88.8382 98.4404 87.4018 100.459 86.5058 103.487C83.5192 113.615 80.3618 123.879 77.297 133.801L74.9361 141.477C72.177 150.461 69.4037 159.438 66.6375 168.393L62.7762 180.91L63.9211 181.422C71.6152 184.876 81.9121 186.774 92.8986 186.774C104.006 186.774 114.402 184.84 122.168 181.322L123.213 180.846L122.971 179.723C122.893 179.36 122.829 179.034 122.772 178.721C122.651 178.095 122.538 177.505 122.353 176.915C120.234 170.121 118.1 163.333 115.974 156.538C110.527 139.146 104.895 121.156 99.4266 103.444C98.5022 100.438 97.0444 98.4404 92.9484 98.4333L92.9626 98.4404ZM92.92 65.9657C89.4071 65.9657 85.9867 67.7071 82.4525 71.2822L81.8481 71.8935L82.1041 72.7108C82.5165 74.0186 82.9289 75.3549 83.3414 76.6982C84.5289 80.5719 85.7663 84.5734 87.224 88.4968C87.864 90.2098 90.3742 91.5673 92.1164 91.5957H92.2587C92.472 91.5957 97.4924 91.5673 98.4595 89.1223C100.095 84.9786 101.347 80.778 102.563 76.7124C102.968 75.3691 103.359 74.0542 103.75 72.7819L103.999 71.9787L103.416 71.3746C99.8888 67.7355 96.4613 65.9657 92.92 65.9657ZM38.4066 10.7609C38.0866 12.1611 37.6813 13.4476 37.3257 14.5848C36.5862 16.9303 35.9462 18.956 36.4013 20.9035C39.8288 35.5309 43.427 49.8101 47.2314 64.928C48.3834 69.4982 49.5354 74.0826 50.6945 78.7097L51.1425 80.5079L85.9938 61.2249L39.0182 8.05292L38.4066 10.7609ZM99.7253 61.2249L134.548 80.5008L134.996 78.7097C136.262 73.6419 137.506 68.6311 138.744 63.6557C142.128 50.0233 145.328 37.1444 148.777 24.0877C150.05 19.2616 149.254 15.4235 146.111 11.2442L145.065 9.85114L99.7181 61.2178L99.7253 61.2249ZM92.8489 59.4409L122.879 25.3742H62.826L92.8489 59.4409ZM93.0622 18.4371C102.307 18.4371 111.636 18.6219 120.774 18.9844C121.066 18.9986 121.35 18.9986 121.627 18.9986C129.748 18.9986 133.233 14.0588 136.923 8.82765L138.502 6.58875H47.1603L48.7247 8.82054C52.7496 14.5848 56.4545 18.9915 64.3406 18.9915C64.6251 18.9915 64.9095 18.9915 65.2011 18.9773C74.481 18.6148 83.8534 18.43 93.0693 18.43L93.0622 18.4371Z" fill="#A08B54"/>
        <path d="M146.652 139.892C145.813 139.892 145.016 139.743 144.454 139.48C138.73 136.807 133.93 134.213 129.791 131.54C128.54 130.73 127.317 128.655 127.174 127.091C126.854 123.466 126.918 119.706 126.975 116.074C126.997 114.653 127.025 113.238 127.025 111.824C127.025 108.661 128.191 107.424 131.164 107.424H131.299C134.101 107.467 137.023 107.481 139.974 107.481C142.925 107.481 146.061 107.46 149.24 107.424H149.382C153.279 107.424 153.343 109.45 153.372 110.317C153.407 111.376 153.165 112.151 152.646 112.691C151.821 113.544 150.371 113.722 149.297 113.722C147.405 113.715 145.549 113.708 143.708 113.708H134.335L134.129 114.887C132.323 125.044 136.22 131.107 145.692 132.905C145.962 132.955 146.253 132.983 146.559 132.983C151.089 132.983 159.743 126.082 159.764 121.441C159.764 120.104 159.764 118.761 159.764 117.425C159.764 115.456 159.757 113.48 159.786 111.511C159.828 108.064 161.393 107.574 162.915 107.538H163.043C164.586 107.538 166.022 108 166.086 111.348V111.732C166.086 111.938 166.093 112.151 166.1 112.357C166.691 131.555 166.527 131.811 148.842 139.494C148.266 139.743 147.469 139.885 146.652 139.885V139.892Z" fill="#A08B54"/>
    </g>
    <defs>
        <clipPath id="clip0_169_124">
            <rect width="185.314" height="193" fill="white"/>
        </clipPath>
    </defs>
</svg>