<svg width="125" height="31" viewBox="0 0 125 31" fill="none" xmlns="http://www.w3.org/2000/svg">
    <path fill-rule="evenodd" clip-rule="evenodd" d="M20.3285 29.2099H19.7904L19.2114 28.4374L19.7904 27.6649H20.3285V29.2099ZM11.262 27.6649H11.6043L12.1833 28.4374L11.6043 29.2099H11.262V27.6649ZM8.5596 17.3173V14.1127C8.5596 12.3941 8.75802 11.2129 9.94979 9.86475C11.1412 8.51624 12.1141 8.0046 12.1141 8.0046C12.1141 8.0046 13.4747 8.86027 14.4376 10.088C15.4009 11.3153 15.669 12.2545 15.669 14.5515V15.1148C14.9007 13.9283 13.6473 13.179 13.6473 13.179H11.453H11.4525C9.46708 14.5083 8.72926 15.9648 8.5596 17.3173ZM6.93222 25.5768H6.11353V25.0119L6.75714 25.456L6.93222 25.5768L7.10729 25.456L7.74507 25.0159V25.5768H6.93222ZM11.1182 7.62337L11.0186 7.27814L10.9757 7.11173L10.6805 7.17374L10.1395 7.28695C10.5238 7.03893 10.8435 6.84571 10.9886 6.7593H12.4055C12.0657 6.96372 11.6122 7.25494 11.1182 7.62337ZM9.91061 8.63905L8.60504 8.99788L8.34784 8.59545C8.71008 8.27502 9.1732 7.9358 9.61465 7.63497L10.6384 7.42016L10.7739 7.88899C10.4892 8.11541 10.1974 8.36663 9.91061 8.63905ZM8.82847 9.89635L8.47081 9.43591L8.36243 9.2967L8.13358 9.37031L7.43411 9.59633C7.60585 9.37351 7.80093 9.14589 8.02645 8.90467C8.04229 8.88747 8.06146 8.86987 8.07814 8.85227L8.27614 9.16189L8.36243 9.2967L8.61421 9.2275L9.58338 8.96108C9.28825 9.2659 9.03898 9.57912 8.82847 9.89635ZM7.06978 12.1541L6.40574 11.6317C6.5187 11.2541 6.64501 10.9196 6.79924 10.6052C6.91304 10.3728 7.04268 10.1512 7.19275 9.92955L8.18527 9.60913L8.64089 10.1956C8.37327 10.6516 8.18152 11.1116 8.04604 11.5613L7.06978 12.1541ZM7.76633 13.0942L7.17816 12.6314L7.02017 12.5074L6.82842 12.6238L6.1427 13.0402C6.17105 12.6926 6.22482 12.3341 6.3182 11.9553L6.86219 12.3829L7.02017 12.5074L7.21192 12.3905L7.94058 11.9481C7.84595 12.3461 7.79218 12.7318 7.76633 13.0942ZM6.93222 15.452L6.11353 14.8871V14.7747C6.11353 14.6443 6.11269 14.5147 6.11186 14.3851C6.10935 14.0455 6.10727 13.713 6.12186 13.3758L6.97015 12.8602L7.74799 13.4722C7.74633 13.541 7.74507 13.609 7.74507 13.6754V14.8911L6.93222 15.452ZM6.93222 18.6946L6.11353 18.1294V16.7253L6.93222 16.16L7.74507 16.7213V18.1334L6.93222 18.6946ZM6.93222 21.9369L6.11353 21.3721V19.9675L6.93222 19.4027L7.74507 19.9639V21.3761L6.93222 21.9369ZM6.11353 23.2102L6.93222 22.645L7.74507 23.2062V24.6615L6.93222 25.2228L6.11353 24.6579V23.2102ZM5.53869 26.7645L6.10977 26.0028V27.5265L5.53869 26.7645ZM6.11353 15.2412L6.75714 15.6852L6.93222 15.806L7.10729 15.6852L7.74507 15.2452V16.3673L7.10729 15.9268L6.93222 15.806L6.75714 15.9268L6.11353 16.3713V15.2412ZM6.11353 18.4838L6.75714 18.9279L6.93222 19.0487L7.10729 18.9279L7.74507 18.4874V19.6095L7.10729 19.1691L6.93222 19.0487L6.75714 19.1691L6.11353 19.6135V18.4838ZM6.11353 21.7261L6.75714 22.1705L6.93222 22.2913L7.10729 22.1705L7.74507 21.7301V22.8522L7.10729 22.4117L6.93222 22.2913L6.75714 22.4117L6.11353 22.8562V21.7261ZM5.04389 26.9325L5.16977 26.7645L5.04389 26.5969L4.53908 25.9228H5.80089L5.29566 26.5969L5.16977 26.7645L5.29566 26.9325L5.80089 27.6065H4.53908L5.04389 26.9325ZM4.80086 26.7645L4.22978 27.5265V26.0028L4.80086 26.7645ZM7.10104 6.7153C7.42493 5.63762 8.40787 4.47632 9.33494 3.58705C10.2624 2.69778 12.1758 1.5849 12.1758 1.5849C14.0749 2.57857 15.5689 3.98429 16.4064 5.11437C17.2447 6.24446 17.5348 7.41615 17.5348 8.99588V10.6008C17.2438 10.0452 16.7415 9.2643 15.9416 8.52504C14.4372 7.13533 13.0203 6.41568 13.0178 6.41488V6.41448H10.8869C10.8869 6.41448 8.66256 7.70738 7.75883 8.67425C7.36241 9.09869 7.05394 9.42751 6.79882 9.82634C6.79841 8.30622 6.81258 7.67498 7.10104 6.7153ZM13.9215 0.466409C14.0224 0.526414 14.21 0.640023 14.4509 0.790435L13.8186 0.677626L13.566 0.632422L13.5176 0.767633L13.3488 1.23927C12.8165 0.897243 12.3609 0.642823 12.014 0.466409H13.9215ZM15.7899 2.59298L16.0504 2.61138L16.0787 2.47377L16.1859 1.95333C16.5106 2.18774 16.837 2.43576 17.1467 2.68938L16.3105 2.62978L16.0504 2.61138L16.0216 2.74899L15.9241 3.22383C15.7528 3.06301 15.5744 2.9018 15.3797 2.73899C15.2992 2.67138 15.2221 2.61098 15.1429 2.54697L15.7899 2.59298ZM13.6685 1.45049L13.8498 0.949247L15.0287 1.15966C15.2826 1.32568 15.5602 1.51209 15.8482 1.71371L15.7223 2.32456L14.7815 2.25735C14.3863 1.94933 14.0145 1.6833 13.6685 1.45049ZM18.1221 3.57945C18.3247 3.79427 18.5056 4.00349 18.6703 4.2115L18.1388 4.88676L17.0162 4.43752C16.7936 4.1363 16.5406 3.83707 16.2467 3.53705L16.3876 2.855L17.4323 2.9294C17.684 3.14662 17.92 3.36544 18.1221 3.57945ZM19.1997 8.09701L18.253 7.44376C18.1901 7.04413 18.1009 6.6633 17.9812 6.29527L18.5678 5.55001L19.6457 5.98124C19.8016 6.45608 19.9017 6.97452 19.9559 7.57457L19.1997 8.09701ZM20.0101 10.9976L19.1997 11.5569L18.3889 10.9976V9.44351C18.3889 9.41671 18.3877 9.39151 18.3877 9.36551L19.1997 8.80506L20.0101 9.36471V10.9976ZM20.0101 14.4575L19.1997 15.0172L18.3889 14.4575V12.8246L19.1997 12.2649L20.0101 12.8246V14.4575ZM20.0101 17.9174L19.1997 18.477L18.3889 17.9174V16.2845L19.1997 15.7252L20.0101 16.2845V17.9174ZM20.0101 21.3773L19.1997 21.9369L18.3889 21.3773V19.7447L19.1997 19.1851L20.0101 19.7447V21.3773ZM20.0101 24.6631L19.1997 25.2228L18.3889 24.6631V23.2046L19.1997 22.645L20.0101 23.2046V24.6631ZM18.3889 25.5768V25.0175L19.0246 25.456L19.1997 25.5768L19.3744 25.456L20.0101 25.0175V25.5768H18.3889ZM20.0101 22.8506L19.3744 22.4117L19.1997 22.2913L19.0246 22.4117L18.3889 22.8506V21.7317L19.0246 22.1705L19.1997 22.2913L19.3744 22.1705L20.0101 21.7317V22.8506ZM20.0101 19.3907L19.3744 18.9519L19.1997 18.8311L19.0246 18.9519L18.3889 19.3907V18.2714L19.0246 18.7102L19.1997 18.8311L19.3744 18.7102L20.0101 18.2714V19.3907ZM20.0101 15.9304L19.3744 15.492L19.1997 15.3712L19.0246 15.492L18.3889 15.9304V14.8115L19.0246 15.2504L19.1997 15.3712L19.3744 15.2504L20.0101 14.8115V15.9304ZM20.0101 12.4706L19.3744 12.0317L19.1997 11.9109L19.0246 12.0317L18.3889 12.4706V11.3513L19.0246 11.7905L19.1997 11.9109L19.3744 11.7905L20.0101 11.3513V12.4706ZM20.0101 8.92027V9.01028L19.3744 8.57185L19.1997 8.45104L19.0246 8.57185L18.3831 9.01428C18.3739 8.60145 18.3485 8.20902 18.3051 7.83379L19.0246 8.33023L19.1997 8.45104L19.3744 8.33023L19.9809 7.91179C20.0001 8.22542 20.0101 8.55865 20.0101 8.92027ZM19.5419 5.69362L18.6003 5.31679L18.3535 5.21838L18.253 5.34599L17.8308 5.88163C17.679 5.504 17.4873 5.13838 17.253 4.77835L18.1063 5.11957L18.3535 5.21838L18.4535 5.09077L18.9021 4.52153C19.1701 4.89956 19.3802 5.28239 19.5419 5.69362ZM16.1642 28.4374L16.7432 27.6649H17.8945L18.4735 28.4374L17.8945 29.2099H16.7432L16.1642 28.4374ZM15.6694 28.6054L15.7953 28.4374L15.6694 28.2694L15.2163 27.6649H16.3743L15.9208 28.2694L15.7953 28.4374L15.9208 28.6054L16.3743 29.2099H15.2163L15.6694 28.6054ZM12.9211 28.4374L13.5005 27.6649H14.8474L15.4264 28.4374L14.8474 29.2099H13.5005L12.9211 28.4374ZM12.5522 15.152C13.1045 15.694 13.7269 16.7609 13.7269 17.8282V25.5768H11.3779V17.8282C11.3779 16.252 12.5522 15.152 12.5522 15.152ZM13.3517 13.7238L13.0999 13.6486L13.0086 13.7891L12.7331 14.2127C12.4234 13.9255 12.1433 13.6934 11.9248 13.5238H13.5397C13.6514 13.5966 13.8682 13.7447 14.1258 13.9543L13.3517 13.7238ZM14.7536 15.6352L13.6322 15.1492C13.566 15.0652 13.498 14.9811 13.4201 14.8967C13.2763 14.7419 13.1341 14.5971 12.9961 14.4619L13.3217 13.9607L14.5435 14.3251C14.7832 14.5535 15.0266 14.8203 15.243 15.122L14.7536 15.6352ZM15.0745 16.0688L14.864 15.9772L14.9991 15.8356L15.4235 15.3904C15.4276 15.3964 15.4318 15.402 15.436 15.4084C15.5289 15.5632 15.6031 15.722 15.669 15.884C15.7361 16.0492 15.7882 16.2204 15.8324 16.3977L15.0745 16.0688ZM15.2284 18.5802L14.4163 18.0198C14.4134 17.8074 14.4072 17.601 14.3905 17.4037C14.3847 17.2569 14.3722 17.1117 14.3563 16.9673L14.9741 16.3193L15.9012 16.7217C15.9699 17.1145 16.0008 17.5466 16.0129 18.0386L15.2284 18.5802ZM16.0212 21.3901L15.2284 21.9369L14.4197 21.3789V19.8463L15.2284 19.2883L16.0212 19.8355V21.3901ZM16.0212 24.6755L15.2284 25.2228L14.4197 24.6647V23.2034L15.2284 22.645L16.0212 23.1926V24.6755ZM16.0212 22.8382L15.4034 22.4117L15.2284 22.2913L15.0533 22.4117L14.4197 22.8494V21.7329L15.0533 22.1705L15.2284 22.2913L15.4034 22.1705L16.0212 21.7437V22.8382ZM15.0533 18.8135L15.2284 18.9343L15.4034 18.8135L16.0191 18.3882C16.0204 18.5306 16.0212 18.677 16.0212 18.8295V19.4815L15.4034 19.0551L15.2284 18.9343L15.0533 19.0551L14.4197 19.4923V18.3762L15.0533 18.8135ZM13.9178 15.5672L14.6535 15.886L14.864 15.9772L14.7286 16.1192L14.2946 16.5745C14.2254 16.2352 14.1104 15.9004 13.9178 15.5672ZM14.4197 25.5768V25.0187L15.0533 25.456L15.2284 25.5768L15.4034 25.456L16.0212 25.0295V25.5768H14.4197ZM12.4263 28.2694L11.9736 27.6649H13.1312L12.6781 28.2694L12.5522 28.4374L12.6781 28.6054L13.1312 29.2099H11.9736L12.4263 28.6054L12.5522 28.4374L12.4263 28.2694ZM18.9683 28.6054L19.4215 29.2099H18.2635L18.7166 28.6054L18.8425 28.4374L18.7166 28.2694L18.2635 27.6649H19.4215L18.9683 28.2694L18.8425 28.4374L18.9683 28.6054ZM22.4845 27.6065V25.5768H20.3694V8.92027C20.3694 8.40343 20.3502 7.9378 20.3098 7.51216V7.33055L20.2902 7.34415C20.0951 5.60801 19.5194 4.54713 18.3885 3.34824C16.9508 1.82372 14.0237 0.121582 14.0237 0.121582H11.262C9.27867 1.12366 7.65921 2.25815 6.38573 3.58705C5.11225 4.91556 4.22978 6.43288 4.22978 9.09029V25.5768H4.1685H2.1151V27.6065H0V29.6359H4.22978H5.92261H10.3262H21.2644H24.5996V27.6065H22.4845Z" fill="#A08B54"/>
    <path d="M42.7608 3.57488C42.2395 2.68689 41.5348 2.24289 40.6468 2.24289C40.1885 2.24289 39.8018 2.37466 39.4867 2.63819C39.0971 2.95328 38.9023 3.34572 38.9023 3.81549C38.9023 4.13631 38.9911 4.40844 39.1687 4.63187C39.3463 4.84957 39.6357 5.05295 40.0367 5.24201C40.3231 5.37377 40.8445 5.55996 41.6007 5.80058C42.5975 6.11567 43.265 6.34197 43.603 6.47946C43.941 6.61696 44.2246 6.77164 44.4537 6.94351C44.9808 7.35027 45.2443 7.81145 45.2443 8.32705C45.2443 8.89422 44.9722 9.51009 44.4279 10.1746C43.7004 11.0569 42.7952 11.7472 41.7124 12.2457C40.6525 12.7269 39.7273 12.9675 38.9367 12.9675C38.4612 12.9675 37.9055 12.8243 37.2696 12.5378C36.4847 12.1884 36.0923 11.7873 36.0923 11.3348C36.0923 11.0999 36.31 10.8507 36.7454 10.5871L38.3781 9.59029C38.5386 10.02 38.7133 10.3437 38.9023 10.5614C39.1487 10.8421 39.4695 11.0712 39.8648 11.2488C40.2601 11.4207 40.6583 11.5066 41.0593 11.5066C41.5176 11.5066 41.9244 11.3691 42.2796 11.0941C42.6921 10.7676 42.8983 10.358 42.8983 9.86528C42.8983 9.22364 42.5488 8.71949 41.8499 8.35283C41.4489 8.14086 40.4377 7.77134 38.8164 7.24428C37.9685 6.96929 37.3956 6.67138 37.0977 6.35056C36.7311 5.96099 36.5477 5.54564 36.5477 5.10451C36.5477 4.35974 36.9516 3.64362 37.7594 2.95615C38.4641 2.35461 39.3607 1.8791 40.4492 1.52963C41.171 1.29475 41.8012 1.1773 42.3397 1.1773C43.0272 1.1773 43.6259 1.29761 44.1358 1.53823C44.5883 1.7502 44.8146 1.99368 44.8146 2.26867C44.8146 2.52647 44.5139 2.79001 43.9123 3.05927L42.7608 3.57488Z" fill="#A08B54"/>
    <path d="M46.6794 3.47175L48.5098 2.30304C48.865 2.8874 49.2546 3.25978 49.6785 3.42019L48.8622 3.92721C48.3981 4.21938 48.0372 4.36547 47.7794 4.36547C47.5044 4.36547 47.2523 4.23657 47.0232 3.97877C46.9372 3.88138 46.8226 3.71237 46.6794 3.47175ZM45.5365 6.9521L45.4763 6.84039L47.2896 5.73183C47.4729 5.61725 47.6763 5.48835 47.8997 5.34513C48.146 5.18472 48.3609 5.10451 48.5442 5.10451C48.8879 5.10451 49.0455 5.45971 49.0168 6.1701C49.0168 6.2503 49.0168 6.43077 49.0168 6.71149C49.0168 6.95783 48.9939 7.67968 48.9481 8.87704C48.9252 9.45566 48.9137 9.99132 48.9137 10.484C48.9137 10.7991 48.9223 11.2803 48.9395 11.9277C48.2062 12.3287 47.4786 12.7727 46.7568 13.2597C46.7911 12.704 46.8284 11.8389 46.8685 10.6645C46.9143 9.49003 46.9372 8.69371 46.9372 8.27549C46.9372 7.30157 46.6479 6.81461 46.0693 6.81461C45.9261 6.81461 45.7485 6.86044 45.5365 6.9521Z" fill="#A08B54"/>
    <path d="M50.1168 1.79603L50.0824 1.71869L51.5605 0.790597C52.0475 0.481233 52.3511 0.292177 52.4714 0.22343C52.7521 0.0744766 52.9698 0 53.1245 0C53.3537 0 53.4883 0.16614 53.5284 0.49842C53.5513 0.653102 53.5628 0.86221 53.5628 1.12574C53.5628 1.30334 53.5284 2.43481 53.4597 4.52016C53.3966 8.0091 53.3651 9.94835 53.3651 10.3379C53.3651 10.6072 53.3709 11.0741 53.3823 11.7387C52.987 12.0308 52.6146 12.2858 52.2652 12.5035C51.8641 12.7498 51.4918 12.9818 51.148 13.1995C51.3142 11.3491 51.4173 9.82804 51.4574 8.63642C51.486 7.76562 51.5003 6.67711 51.5003 5.37091C51.5003 3.5892 51.4688 2.56085 51.4058 2.28586C51.3142 1.85619 51.0993 1.64135 50.7613 1.64135C50.6066 1.64135 50.3918 1.69291 50.1168 1.79603Z" fill="#A08B54"/>
    <path d="M54.4995 1.79603L54.4651 1.71869L55.9432 0.790597C56.4301 0.481233 56.7338 0.292177 56.8541 0.22343C57.1348 0.0744766 57.3525 0 57.5072 0C57.7363 0 57.871 0.16614 57.9111 0.49842C57.934 0.653102 57.9454 0.86221 57.9454 1.12574C57.9454 1.30334 57.9111 2.43481 57.8423 4.52016C57.7793 8.0091 57.7478 9.94835 57.7478 10.3379C57.7478 10.6072 57.7535 11.0741 57.765 11.7387C57.3697 12.0308 56.9973 12.2858 56.6478 12.5035C56.2468 12.7498 55.8744 12.9818 55.5307 13.1995C55.6968 11.3491 55.7999 9.82804 55.84 8.63642C55.8687 7.76562 55.883 6.67711 55.883 5.37091C55.883 3.5892 55.8515 2.56085 55.7885 2.28586C55.6968 1.85619 55.482 1.64135 55.144 1.64135C54.9893 1.64135 54.7745 1.69291 54.4995 1.79603ZM59.5352 6.08416L61.4 4.88108C61.7953 5.00712 62.0732 5.1131 62.2336 5.19904C62.6976 5.43965 62.9296 5.70319 62.9296 5.98964C62.9296 6.26463 62.5859 6.63414 61.8984 7.09819C61.3943 7.44193 60.8844 7.7914 60.3688 8.14659C60.8672 8.73095 61.5747 9.59316 62.4914 10.7332C63.007 11.3691 63.4309 11.6871 63.7632 11.6871C63.8434 11.6871 63.9551 11.6527 64.0983 11.584L64.1757 11.6785C63.9408 11.8676 63.7031 12.0623 63.4624 12.2629C63.1359 12.5264 62.8437 12.7441 62.5859 12.916C62.3682 13.0649 62.1591 13.1394 61.9586 13.1394C61.8039 13.1394 61.6664 13.0792 61.5461 12.9589C61.4602 12.8673 61.2969 12.6582 61.0563 12.3316L58.5298 8.96297C59.9105 8.26404 60.6008 7.60234 60.6008 6.97788C60.6008 6.72581 60.4318 6.50811 60.0938 6.32478C60.0079 6.27895 59.8217 6.19874 59.5352 6.08416Z" fill="#A08B54"/>
    <path d="M68.5498 3.23114V2.96474C68.7503 2.75277 68.9508 2.54939 69.1513 2.35461C69.4206 2.07961 69.6669 1.7989 69.8903 1.51245C70.3372 1.47807 70.6466 1.45516 70.8184 1.4437C71.9871 1.35777 72.8551 1.3148 73.4222 1.3148C74.7055 1.3148 75.774 1.51531 76.6276 1.91634C77.1031 2.13404 77.487 2.46632 77.7791 2.91318C77.9968 3.25119 78.1057 3.62357 78.1057 4.03033C78.1057 4.70062 77.8078 5.2993 77.212 5.82636C76.9484 6.06125 76.4958 6.40212 75.8542 6.84898C76.7078 8.38434 77.5729 9.71919 78.4494 10.8535C78.7531 11.2488 78.9622 11.4866 79.0767 11.5668C79.1512 11.6183 79.2257 11.6441 79.3002 11.6441C79.3804 11.6441 79.4749 11.604 79.5838 11.5238L79.6611 11.6441L78.6041 12.4089C78.0026 12.8386 77.5843 13.0535 77.3495 13.0535C77.0286 13.0535 76.6935 12.7842 76.344 12.2457C76.0576 11.816 75.1438 10.2004 73.6027 7.39896C75.1152 6.82606 75.8714 6.05552 75.8714 5.08732C75.8714 4.78369 75.7969 4.49437 75.648 4.21938C75.499 3.93867 75.3014 3.72096 75.055 3.56628C74.5566 3.25119 73.8863 3.09364 73.0441 3.09364C72.9066 3.09364 72.7033 3.09937 72.434 3.11083V11.6098L70.0966 13.1995C70.108 12.7527 70.1739 10.9652 70.2942 7.83723C70.3286 5.36231 70.3487 3.82695 70.3544 3.23114C70.0336 3.21395 69.7987 3.20536 69.6497 3.20536C69.5867 3.20536 69.349 3.21109 68.9365 3.22254C68.8505 3.22827 68.7216 3.23114 68.5498 3.23114Z" fill="#A08B54"/>
    <path d="M81.4829 6.44509L81.4399 6.36775C82.0988 5.90943 82.58 5.60007 82.8836 5.43965C83.3821 5.17612 83.8089 5.04436 84.1641 5.04436C84.4505 5.04436 84.7484 5.11597 85.0578 5.25919C85.3729 5.39669 85.6507 5.58001 85.8914 5.80917C86.2236 6.13572 86.4872 6.53389 86.6819 7.00366C86.8825 7.46771 86.9827 7.93176 86.9827 8.3958C86.9827 8.75673 86.9168 9.13197 86.7851 9.52154C86.659 9.90538 86.49 10.2319 86.2781 10.5012C86.0145 10.8335 85.6479 11.223 85.1781 11.6699C84.7083 12.111 84.2758 12.472 83.8805 12.7527C83.5024 13.0162 83.0784 13.148 82.6086 13.148C81.7951 13.148 81.0876 12.81 80.4861 12.134C79.9647 11.5439 79.7041 10.8564 79.7041 10.0715C79.7041 9.18353 80.0478 8.4846 80.7353 7.97472L81.9985 7.03804L82.0673 7.10678C81.9069 7.34167 81.798 7.52213 81.7407 7.64817C81.6261 7.9117 81.5688 8.22393 81.5688 8.58486C81.5688 9.50149 81.9011 10.295 82.5657 10.9652C83.1214 11.5152 83.637 11.7902 84.1125 11.7902C84.4505 11.7902 84.7226 11.6098 84.9289 11.2488C85.0836 10.9796 85.1609 10.5843 85.1609 10.0629C85.1609 9.35827 84.9862 8.69944 84.6367 8.08644C84.3102 7.525 83.932 7.09246 83.5024 6.78883C83.0784 6.48519 82.6287 6.33337 82.1532 6.33337C81.9871 6.33337 81.7636 6.37061 81.4829 6.44509Z" fill="#A08B54"/>
    <path d="M92.8349 11.3863L92.0357 12.1511C91.6919 12.4834 91.394 12.724 91.142 12.873C90.8383 13.0563 90.4745 13.148 90.0506 13.148C89.4319 13.148 88.8217 12.9561 88.2202 12.5722C87.7218 12.2514 87.4726 11.8962 87.4726 11.5066C87.4726 11.0082 87.7791 10.5012 88.3921 9.98559C88.9019 9.55592 89.5293 9.20072 90.274 8.92C90.9672 8.6622 91.5458 8.5333 92.0099 8.5333C92.1245 8.5333 92.2992 8.54475 92.5341 8.56767C92.0013 7.8229 91.6003 7.3073 91.331 7.02085C90.993 6.65992 90.6464 6.47946 90.2912 6.47946C90.1594 6.47946 89.9847 6.52243 89.767 6.60836L89.6983 6.50524L90.9443 5.62871C91.2136 5.43965 91.4485 5.28211 91.649 5.15607C91.8609 5.0243 92.0529 4.95842 92.2247 4.95842C92.4711 4.95842 92.7718 5.19044 93.127 5.65449C93.6025 6.29041 94.1411 7.1698 94.7426 8.29268C95.3441 9.40983 95.9686 10.6931 96.616 12.1425C96.0545 12.4576 95.4186 12.8329 94.7082 13.2683C94.5536 12.6897 94.3989 12.2342 94.2442 11.9019C94.0895 11.5696 93.8833 11.2402 93.6255 10.9137C92.8177 9.89966 91.755 9.39264 90.4373 9.39264C89.7498 9.39264 89.4061 9.63039 89.4061 10.1059C89.4061 10.5871 89.6696 10.9738 90.1967 11.266C90.6034 11.4894 91.0503 11.6012 91.5373 11.6012C91.8294 11.6012 92.262 11.5295 92.8349 11.3863Z" fill="#A08B54"/>
    <path d="M99.0823 2.33742L99.1596 2.43195C98.982 2.59236 98.8933 2.74418 98.8933 2.8874C98.8933 3.15666 99.0365 3.4116 99.3229 3.65222C99.6323 3.91002 100.474 4.33396 101.849 4.92405C102.921 5.38236 103.665 5.74043 104.084 5.99823C104.92 6.51384 105.338 7.19845 105.338 8.05206C105.338 8.75673 105.04 9.50149 104.445 10.2864C103.797 11.1457 102.995 11.8532 102.038 12.4089C101.328 12.8214 100.712 13.0277 100.191 13.0277C99.87 13.0277 99.532 12.9446 99.1768 12.7785C98.8274 12.6123 98.518 12.3889 98.2487 12.1082C97.968 11.8103 97.7446 11.4665 97.5784 11.077C97.418 10.6874 97.3378 10.3035 97.3378 9.92544C97.3378 9.23796 97.5469 8.68511 97.9652 8.2669C97.9995 8.23253 98.5466 7.83436 99.6065 7.07241L99.701 7.14975C99.4203 7.67109 99.28 8.17524 99.28 8.6622C99.28 9.25801 99.4919 9.8395 99.9159 10.4067C100.168 10.7504 100.48 11.0197 100.853 11.2145C101.208 11.4035 101.56 11.498 101.91 11.498C102.494 11.498 102.944 11.2288 103.259 10.6903C103.442 10.3752 103.534 10.0228 103.534 9.63326C103.534 8.74527 103.118 7.98332 102.288 7.3474C101.938 7.08387 101.179 6.71149 100.01 6.23025C99.8729 6.17296 99.2169 5.91229 98.0425 5.44825C97.4811 5.22482 97.1402 5.07014 97.0199 4.9842C96.7449 4.8066 96.6074 4.61182 96.6074 4.39985C96.6074 4.20506 96.7649 3.9845 97.08 3.73815C97.1431 3.68659 97.4152 3.49467 97.8964 3.16239L99.0823 2.33742Z" fill="#A08B54"/>
    <path d="M42.795 20.2406C42.2737 19.3526 41.569 18.9086 40.681 18.9086C40.2227 18.9086 39.836 19.0403 39.5209 19.3039C39.1313 19.619 38.9365 20.0114 38.9365 20.4812C38.9365 20.802 39.0253 21.0741 39.2029 21.2976C39.3805 21.5153 39.6698 21.7186 40.0709 21.9077C40.3573 22.0395 40.8786 22.2256 41.6349 22.4663C42.6317 22.7814 43.2991 23.0077 43.6371 23.1451C43.9752 23.2826 44.2587 23.4373 44.4879 23.6092C45.015 24.016 45.2785 24.4771 45.2785 24.9927C45.2785 25.5599 45.0064 26.1758 44.4621 26.8403C43.7345 27.7226 42.8294 28.4129 41.7466 28.9114C40.6867 29.3926 39.7615 29.6332 38.9709 29.6332C38.4954 29.6332 37.9397 29.49 37.3038 29.2035C36.5189 28.8541 36.1265 28.453 36.1265 28.0004C36.1265 27.7656 36.3442 27.5163 36.7796 27.2528L38.4123 26.256C38.5727 26.6856 38.7475 27.0093 38.9365 27.227C39.1829 27.5078 39.5037 27.7369 39.899 27.9145C40.2943 28.0864 40.6925 28.1723 41.0935 28.1723C41.5518 28.1723 41.9586 28.0348 42.3138 27.7598C42.7262 27.4333 42.9325 27.0237 42.9325 26.531C42.9325 25.8893 42.583 25.3852 41.8841 25.0185C41.4831 24.8065 40.4719 24.437 38.8506 23.91C38.0027 23.635 37.4298 23.3371 37.1319 23.0162C36.7652 22.6267 36.5819 22.2113 36.5819 21.7702C36.5819 21.0254 36.9858 20.3093 37.7936 19.6218C38.4983 19.0203 39.3948 18.5448 40.4833 18.1953C41.2052 17.9604 41.8354 17.843 42.3739 17.843C43.0614 17.843 43.6601 17.9633 44.1699 18.2039C44.6225 18.4159 44.8488 18.6594 44.8488 18.9344C44.8488 19.1922 44.5481 19.4557 43.9465 19.725L42.795 20.2406Z" fill="#A08B54"/>
    <path d="M50.8986 28.052L50.0994 28.8168C49.7557 29.1491 49.4578 29.3897 49.2057 29.5387C48.9021 29.722 48.5383 29.8137 48.1143 29.8137C47.4956 29.8137 46.8855 29.6217 46.2839 29.2379C45.7855 28.9171 45.5363 28.5619 45.5363 28.1723C45.5363 27.6739 45.8428 27.1669 46.4558 26.6513C46.9657 26.2216 47.593 25.8664 48.3378 25.5857C49.031 25.3279 49.6096 25.199 50.0736 25.199C50.1882 25.199 50.363 25.2104 50.5978 25.2334C50.065 24.4886 49.664 23.973 49.3948 23.6865C49.0568 23.3256 48.7101 23.1451 48.355 23.1451C48.2232 23.1451 48.0485 23.1881 47.8308 23.2741L47.762 23.1709L49.0081 22.2944C49.2773 22.1053 49.5122 21.9478 49.7127 21.8218C49.9247 21.69 50.1166 21.6241 50.2885 21.6241C50.5348 21.6241 50.8356 21.8561 51.1908 22.3202C51.6663 22.9561 52.2048 23.8355 52.8064 24.9584C53.4079 26.0755 54.0324 27.3588 54.6797 28.8082C54.1183 29.1233 53.4824 29.4986 52.772 29.934C52.6173 29.3553 52.4626 28.8999 52.3079 28.5676C52.1533 28.2353 51.947 27.9059 51.6892 27.5794C50.8814 26.5653 49.8187 26.0583 48.501 26.0583C47.8136 26.0583 47.4698 26.2961 47.4698 26.7716C47.4698 27.2528 47.7334 27.6395 48.2604 27.9317C48.6672 28.1551 49.114 28.2668 49.601 28.2668C49.8932 28.2668 50.3257 28.1952 50.8986 28.052Z" fill="#A08B54"/>
    <path d="M54.6711 23.3944C55.0149 23.1595 55.5104 22.8186 56.1578 22.3717C56.6448 22.0337 56.9771 21.816 57.1546 21.7186C57.3093 21.6327 57.444 21.5897 57.5585 21.5897C57.8622 21.5897 58.0627 21.8132 58.1601 22.26C58.2174 22.5121 58.2661 23.1366 58.3062 24.1334C58.3291 24.7006 58.3405 25.1503 58.3405 25.4826C58.3405 25.5914 58.3377 25.7604 58.332 25.9896C59.4663 24.6375 60.4144 23.5777 61.1764 22.81C61.8639 22.1168 62.3938 21.7702 62.7662 21.7702C63.1271 21.7702 63.382 22.0423 63.531 22.5866C63.6055 22.8501 63.7372 23.718 63.9263 25.1904L64.0294 25.9896C65.6221 24.099 66.7077 22.9074 67.2863 22.4147C67.7905 21.985 68.1772 21.7702 68.4464 21.7702C68.7673 21.7702 68.9936 21.9277 69.1253 22.2428C69.4061 22.9475 69.6438 25.0959 69.8386 28.6879C69.6209 28.8311 69.3373 29.0087 68.9878 29.2207C68.6727 29.404 68.309 29.6361 67.8965 29.9168C67.8965 29.7793 67.8965 29.6762 67.8965 29.6074C67.8965 29.0231 67.8306 28.0892 67.6988 26.806C67.6129 25.9867 67.504 25.4195 67.3723 25.1045C67.1546 24.5888 66.8882 24.331 66.5731 24.331C66.1491 24.331 65.5103 24.8209 64.6567 25.8005C64.101 26.4307 63.319 27.5278 62.3107 29.0918C62.2592 28.6335 62.1847 27.8916 62.0873 26.8661C62.0014 26.001 61.881 25.3995 61.7264 25.0615C61.5316 24.649 61.2766 24.4428 60.9615 24.4428C60.5777 24.4428 60.0392 24.7865 59.346 25.474C58.3892 26.4193 57.4125 27.8257 56.4156 29.6934H56.2008C56.2581 28.5819 56.2867 27.7742 56.2867 27.27C56.2867 26.0898 56.2409 25.1703 56.1492 24.5115C56.0346 23.7209 55.7396 23.3256 55.2641 23.3256C55.1495 23.3256 54.9719 23.38 54.7313 23.4889L54.6711 23.3944Z" fill="#A08B54"/>
    <path d="M76.0602 28.052L75.2611 28.8168C74.9173 29.1491 74.6194 29.3897 74.3673 29.5387C74.0637 29.722 73.6999 29.8137 73.276 29.8137C72.6572 29.8137 72.0471 29.6217 71.4456 29.2379C70.9471 28.9171 70.6979 28.5619 70.6979 28.1723C70.6979 27.6739 71.0044 27.1669 71.6174 26.6513C72.1273 26.2216 72.7546 25.8664 73.4994 25.5857C74.1926 25.3279 74.7712 25.199 75.2353 25.199C75.3499 25.199 75.5246 25.2104 75.7595 25.2334C75.2267 24.4886 74.8257 23.973 74.5564 23.6865C74.2184 23.3256 73.8718 23.1451 73.5166 23.1451C73.3848 23.1451 73.2101 23.1881 72.9924 23.2741L72.9236 23.1709L74.1697 22.2944C74.4389 22.1053 74.6738 21.9478 74.8744 21.8218C75.0863 21.69 75.2782 21.6241 75.4501 21.6241C75.6965 21.6241 75.9972 21.8561 76.3524 22.3202C76.8279 22.9561 77.3665 23.8355 77.968 24.9584C78.5695 26.0755 79.194 27.3588 79.8414 28.8082C79.2799 29.1233 78.644 29.4986 77.9336 29.934C77.7789 29.3553 77.6243 28.8999 77.4696 28.5676C77.3149 28.2353 77.1087 27.9059 76.8508 27.5794C76.0431 26.5653 74.9803 26.0583 73.6627 26.0583C72.9752 26.0583 72.6315 26.2961 72.6315 26.7716C72.6315 27.2528 72.895 27.6395 73.4221 27.9317C73.8288 28.1551 74.2757 28.2668 74.7626 28.2668C75.0548 28.2668 75.4874 28.1952 76.0602 28.052Z" fill="#A08B54"/>
    <path d="M87.2833 23.5061L85.4701 24.9498C85.2409 24.1649 84.9144 23.7725 84.4904 23.7725C84.33 23.7725 84.1725 23.8412 84.0178 23.9787C83.8688 24.1162 83.7543 24.2938 83.674 24.5115C83.5251 24.9011 83.4506 25.5083 83.4506 26.3333V27.9489V28.7051L81.371 30.0543C81.4569 28.9085 81.4999 28.0119 81.4999 27.3645C81.4999 25.9953 81.4254 24.967 81.2765 24.2795C81.1791 23.8212 80.9614 23.592 80.6234 23.592C80.4859 23.592 80.2739 23.6493 79.9875 23.7639L79.8929 23.5404L82.0241 22.1741C82.5283 21.8647 82.8405 21.71 82.9608 21.71C83.2301 21.71 83.379 21.9392 83.4076 22.3975C83.4248 22.6725 83.4392 23.2712 83.4506 24.1935C83.8688 23.7524 84.267 23.3428 84.6451 22.9647C85.0289 22.5808 85.3899 22.2572 85.7279 21.9936C85.8998 21.8561 86.0602 21.7874 86.2091 21.7874C86.381 21.7874 86.5443 21.9335 86.6989 22.2256C86.8307 22.4777 87.0255 22.9045 87.2833 23.5061Z" fill="#A08B54"/>
    <path d="M86.6732 18.4617L86.6388 18.3844L88.1169 17.4563C88.6038 17.1469 88.9075 16.9579 89.0278 16.8891C89.3085 16.7402 89.5262 16.6657 89.6809 16.6657C89.91 16.6657 90.0447 16.8318 90.0848 17.1641C90.1077 17.3188 90.1191 17.5279 90.1191 17.7914C90.1191 17.969 90.0848 19.1005 90.016 21.1858C89.953 24.6748 89.9215 26.614 89.9215 27.0036C89.9215 27.2729 89.9272 27.7398 89.9387 28.4043C89.5434 28.6965 89.171 28.9515 88.8215 29.1692C88.4205 29.4155 88.0481 29.6475 87.7044 29.8652C87.8705 28.0148 87.9736 26.4937 88.0137 25.3021C88.0424 24.4313 88.0567 23.3428 88.0567 22.0366C88.0567 20.2549 88.0252 19.2265 87.9622 18.9515C87.8705 18.5219 87.6557 18.307 87.3177 18.307C87.163 18.307 86.9481 18.3586 86.6732 18.4617ZM91.7089 22.7498L93.5737 21.5468C93.969 21.6728 94.2469 21.7788 94.4073 21.8647C94.8713 22.1053 95.1033 22.3689 95.1033 22.6553C95.1033 22.9303 94.7596 23.2998 94.0721 23.7639C93.568 24.1076 93.0581 24.4571 92.5425 24.8123C93.0409 25.3966 93.7484 26.2588 94.6651 27.3989C95.1807 28.0348 95.6046 28.3528 95.9369 28.3528C96.0171 28.3528 96.1288 28.3184 96.272 28.2497L96.3494 28.3442C96.1145 28.5332 95.8767 28.728 95.6361 28.9285C95.3096 29.1921 95.0174 29.4098 94.7596 29.5816C94.5419 29.7306 94.3328 29.8051 94.1323 29.8051C93.9776 29.8051 93.8401 29.7449 93.7198 29.6246C93.6339 29.5329 93.4706 29.3238 93.23 28.9973L90.7035 25.6287C92.0842 24.9297 92.7745 24.268 92.7745 23.6436C92.7745 23.3915 92.6055 23.1738 92.2675 22.9905C92.1816 22.9446 91.9954 22.8644 91.7089 22.7498Z" fill="#A08B54"/>
    <path d="M102.116 28.052L101.316 28.8168C100.973 29.1491 100.675 29.3897 100.423 29.5387C100.119 29.722 99.7553 29.8137 99.3313 29.8137C98.7126 29.8137 98.1025 29.6217 97.5009 29.2379C97.0025 28.9171 96.7533 28.5619 96.7533 28.1723C96.7533 27.6739 97.0598 27.1669 97.6728 26.6513C98.1827 26.2216 98.81 25.8664 99.5548 25.5857C100.248 25.3279 100.827 25.199 101.291 25.199C101.405 25.199 101.58 25.2104 101.815 25.2334C101.282 24.4886 100.881 23.973 100.612 23.6865C100.274 23.3256 99.9271 23.1451 99.5719 23.1451C99.4402 23.1451 99.2654 23.1881 99.0477 23.2741L98.979 23.1709L100.225 22.2944C100.494 22.1053 100.729 21.9478 100.93 21.8218C101.142 21.69 101.334 21.6241 101.505 21.6241C101.752 21.6241 102.053 21.8561 102.408 22.3202C102.883 22.9561 103.422 23.8355 104.023 24.9584C104.625 26.0755 105.249 27.3588 105.897 28.8082C105.335 29.1233 104.699 29.4986 103.989 29.934C103.834 29.3553 103.68 28.8999 103.525 28.5676C103.37 28.2353 103.164 27.9059 102.906 27.5794C102.098 26.5653 101.036 26.0583 99.718 26.0583C99.0305 26.0583 98.6868 26.2961 98.6868 26.7716C98.6868 27.2528 98.9503 27.6395 99.4774 27.9317C99.8842 28.1551 100.331 28.2668 100.818 28.2668C101.11 28.2668 101.543 28.1952 102.116 28.052Z" fill="#A08B54"/>
    <path d="M106.008 23.4889L105.948 23.403L107.77 22.1999C107.948 22.0853 108.088 21.9908 108.191 21.9163C108.506 21.7043 108.744 21.5983 108.904 21.5983C109.174 21.5983 109.351 21.8647 109.437 22.3975C109.46 22.5751 109.506 23.4774 109.575 25.1045L109.618 26.1271C111.783 23.2225 113.264 21.7702 114.061 21.7702C114.393 21.7702 114.633 22.0452 114.782 22.5952C114.868 22.8988 114.983 23.6579 115.126 24.8724C115.292 26.2818 115.415 27.565 115.496 28.7223C114.98 28.9744 114.333 29.3439 113.553 29.8309C113.559 29.6418 113.562 29.49 113.562 29.3754C113.562 28.6077 113.508 27.8314 113.399 27.0466C113.29 26.2617 113.152 25.6287 112.986 25.1474C112.918 24.9584 112.812 24.8037 112.668 24.6834C112.531 24.5631 112.382 24.5029 112.221 24.5029C111.883 24.5029 111.511 24.6719 111.104 25.0099C110.698 25.3479 110.225 25.8836 109.686 26.6169C108.999 27.545 108.36 28.5705 107.77 29.6934H107.555C107.567 29.0975 107.572 28.6564 107.572 28.37C107.572 26.3476 107.509 24.9927 107.383 24.3053C107.257 23.6464 106.991 23.317 106.584 23.317C106.424 23.317 106.232 23.3743 106.008 23.4889Z" fill="#A08B54"/>
    <path d="M118.744 19.0031L118.821 19.0976C118.644 19.258 118.555 19.4099 118.555 19.5531C118.555 19.8223 118.698 20.0773 118.985 20.3179C119.294 20.5757 120.136 20.9996 121.511 21.5897C122.582 22.0481 123.327 22.4061 123.745 22.6639C124.582 23.1795 125 23.8641 125 24.7177C125 25.4224 124.702 26.1672 124.106 26.952C123.459 27.8114 122.657 28.5189 121.7 29.0746C120.99 29.4871 120.374 29.6934 119.852 29.6934C119.532 29.6934 119.194 29.6103 118.838 29.4441C118.489 29.278 118.18 29.0546 117.91 28.7739C117.63 28.476 117.406 28.1322 117.24 27.7426C117.08 27.3531 116.999 26.9692 116.999 26.5911C116.999 25.9036 117.209 25.3508 117.627 24.9326C117.661 24.8982 118.208 24.5 119.268 23.7381L119.363 23.8154C119.082 24.3368 118.942 24.8409 118.942 25.3279C118.942 25.9237 119.154 26.5052 119.577 27.0724C119.83 27.4161 120.142 27.6854 120.514 27.8801C120.869 28.0692 121.222 28.1637 121.571 28.1637C122.156 28.1637 122.605 27.8945 122.92 27.3559C123.104 27.0408 123.195 26.6885 123.195 26.2989C123.195 25.411 122.78 24.649 121.949 24.0131C121.6 23.7496 120.841 23.3772 119.672 22.8959C119.535 22.8386 118.879 22.578 117.704 22.1139C117.143 21.8905 116.802 21.7358 116.681 21.6499C116.407 21.4723 116.269 21.2775 116.269 21.0655C116.269 20.8707 116.427 20.6502 116.742 20.4038C116.805 20.3523 117.077 20.1604 117.558 19.8281L118.744 19.0031Z" fill="#A08B54"/>
</svg>
